# xmcd CD database file
#
# Track frame offsets:
#	150
#	20062
#	41030
#
# Disc length: 809 seconds
#
# Revision: 0
# Processed by: cddbd v1.5.1PL0 Copyright (c) Steve Scherf et al.
# Submitted via: CDex 1.51
#
DISCID=21032703
DTITLE=TUBE - 夏を抱きしめて
DYEAR=1994
DGENRE=JPop
TTITLE0=夏を抱きしめて
TTITLE1=海へ行こう
TTITLE2=夏を抱きしめて（カラオケ)
EXTD=YEAR: 1994
EXTT0=
EXTT1=
EXTT2=
PLAYORDER=
